PathFileType	4	(X/Y/Z)	C:/Users/opensim2020/Desktop/walking_exp_matlab/subject06_walking19_straight_04.trc	
DataRate	CameraRate	NumFrames	NumMarkers	Units	OrigDataRate	OrigDataStartFrame	OrigNumFrames	
100.00	100.00	7	49	mm	100.00	4586	340	
Frame#	Time	LFHD			RFHD			LBHD			RBHD			C7			T10			CLAV			STRN			RBAK			LSHO			LUPA			LELB			LFRM			LWRA			LWRB			LFIN			RSHO			RUPA			RELB			RFRM			RWRA			RWRB			RFIN			LASI			RASI			LPSI			RPSI			LTHI			LKNE			LTIB			LANK			LHEE			LTOE			RTHI			RKNE			RTIB			RANK			RHEE			RTOE			*39			*40			*41			*42			*43			*44			*45			*46			*47			*48			
		X1	Y1	Z1	X2	Y2	Z2	X3	Y3	Z3	X4	Y4	Z4	X5	Y5	Z5	X6	Y6	Z6	X7	Y7	Z7	X8	Y8	Z8	X9	Y9	Z9	X10	Y10	Z10	X11	Y11	Z11	X12	Y12	Z12	X13	Y13	Z13	X14	Y14	Z14	X15	Y15	Z15	X16	Y16	Z16	X17	Y17	Z17	X18	Y18	Z18	X19	Y19	Z19	X20	Y20	Z20	X21	Y21	Z21	X22	Y22	Z22	X23	Y23	Z23	X24	Y24	Z24	X25	Y25	Z25	X26	Y26	Z26	X27	Y27	Z27	X28	Y28	Z28	X29	Y29	Z29	X30	Y30	Z30	X31	Y31	Z31	X32	Y32	Z32	X33	Y33	Z33	X34	Y34	Z34	X35	Y35	Z35	X36	Y36	Z36	X37	Y37	Z37	X38	Y38	Z38	X39	Y39	Z39	X40	Y40	Z40	X41	Y41	Z41	X42	Y42	Z42	X43	Y43	Z43	X44	Y44	Z44	X45	Y45	Z45	X46	Y46	Z46	X47	Y47	Z47	X48	Y48	Z48	X49	Y49	Z49	

43	0.420	-956.09186	945.69421	1651.35022	-1087.50085	937.57965	1645.70483	-966.36566	1077.38623	1591.73083	-1095.46521	1066.43701	1590.62451	-1025.03320	1069.22107	1440.19177	-1032.95813	1108.82971	1112.63403	-1022.93414	960.29645	1361.62976	-1019.56903	925.50867	1183.84229	-1109.51404	1141.61389	1272.94226	-861.93555	1020.40881	1391.66772	-793.94403	1052.46204	1190.90796	-784.71381	1073.34216	1080.31458	-758.35443	1065.42236	930.97040	-785.90021	1006.07953	812.69513	-764.43604	1074.53906	811.48682	-755.93982	1038.87695	727.45288	-1184.95325	998.78876	1395.75256	-1279.52100	1039.04199	1201.09241	-1294.95581	1032.56238	1079.60730	-1311.67932	1008.16119	962.17896	-1275.69336	937.63159	829.62128	-1319.39551	989.94629	826.06152	-1318.40491	945.96820	753.44623	-926.62390	931.25342	952.01776	-1145.55725	945.40521	948.82422	-943.66748	1090.22656	980.43878	-1112.82043	1093.69727	981.82892	-853.50964	939.78528	645.11523	-885.39423	892.17017	493.09689	-887.82367	847.75055	241.79655	-926.93439	790.55914	77.63545	-971.80566	824.04706	51.14910	-938.99469	643.67310	88.95455	-1182.29736	1044.36255	618.45374	-1159.17493	1065.37183	493.70505	-1152.10864	1185.47144	252.70151	-1106.75964	1258.68787	80.11973	-1065.68408	1307.03870	63.25928	-1093.94202	1113.87915	30.13034	-1020.15887	1044.51685	1687.82227																											 
44	0.430	-955.16083	939.14935	1650.47339	-1086.56079	930.97119	1644.77808	-965.56079	1070.90991	1590.87402	-1094.65332	1059.95178	1589.77661	-1024.16431	1062.78894	1439.35144	-1031.96716	1102.51917	1111.76831	-1022.19208	953.68488	1360.64197	-1018.76837	918.97070	1182.90625	-1108.62683	1135.30237	1272.20654	-861.02777	1013.93701	1390.81665	-793.34418	1046.60193	1190.12061	-784.36108	1067.72852	1079.55847	-758.49237	1060.21338	929.97290	-785.58984	1001.33667	811.70514	-764.55066	1069.97632	810.76434	-755.96722	1034.57397	726.49072	-1184.09094	992.36169	1394.87549	-1278.67444	1032.68457	1200.26025	-1294.14978	1026.35706	1078.79224	-1310.87048	1002.07556	961.32251	-1274.79626	931.72205	828.70691	-1318.46338	983.89496	825.07275	-1317.50073	940.09369	752.53107	-926.00195	924.57141	951.25739	-1144.95667	939.12262	948.23163	-942.58191	1083.53320	979.49963	-1111.70020	1087.29333	980.90753	-853.13196	933.34351	644.18030	-884.92542	885.99200	492.08551	-887.69818	840.98743	240.84816	-926.86096	783.07654	77.02223	-972.06537	816.15094	50.36237	-938.11163	636.31024	89.00141	-1181.78564	1038.58752	618.02557	-1158.70752	1060.10645	493.32578	-1151.81628	1183.02576	253.41025	-1106.68713	1258.04382	81.57761	-1065.54956	1306.43677	65.14695	-1094.03162	1114.02783	30.02804	-1019.34766	1037.99585	1686.96252																											 
45	0.440	-954.21051	932.68304	1649.64795	-1085.68896	924.49805	1643.90002	-964.65021	1064.39636	1590.01904	-1093.49878	1053.15491	1588.89038	-1023.19379	1056.32117	1438.49377	-1030.92139	1096.10474	1110.93054	-1021.20068	947.23364	1359.71606	-1017.92236	912.65698	1182.10071	-1107.60486	1128.90137	1271.43787	-860.02936	1007.38171	1389.98279	-792.61029	1040.49585	1189.30603	-783.89087	1061.94043	1078.80750	-757.89575	1055.10498	929.24561	-785.26917	996.25885	810.80389	-764.44507	1064.94287	809.87201	-755.88531	1029.82312	725.55444	-1183.17493	985.95074	1394.04138	-1277.78931	1026.36902	1199.46252	-1293.26685	1020.16217	1077.99243	-1310.02246	996.01440	960.52100	-1273.91248	925.71094	827.82300	-1317.79224	978.05457	824.39484	-1316.65625	934.18060	751.64581	-925.33160	917.64844	950.65002	-1144.26233	932.62677	947.60620	-941.58112	1076.64172	978.51672	-1110.70129	1080.75879	979.99646	-852.79315	926.63538	643.28888	-884.53577	879.69342	491.09915	-887.52429	834.75806	239.69759	-926.82104	776.86249	75.98905	-972.28815	809.71790	49.30775	-937.09473	630.20679	88.26670	-1181.09558	1032.52551	617.47662	-1158.11450	1054.46094	492.86835	-1151.51135	1180.32654	254.21327	-1106.62695	1257.32715	83.15434	-1065.37598	1305.76587	67.19552	-1094.01184	1113.93372	29.99556	-1018.42242	1031.45044	1686.10913																											 
46	0.450	-953.27863	926.05670	1648.75061	-1084.72058	917.93317	1643.02600	-963.64856	1057.76563	1589.11255	-1092.77893	1046.79932	1588.02075	-1022.08826	1049.81763	1437.65881	-1029.80408	1089.51953	1110.02002	-1020.21942	940.67474	1358.81433	-1016.99731	906.15668	1181.27417	-1106.51868	1122.44543	1270.62915	-858.99176	1000.68365	1389.16296	-791.84052	1034.23193	1188.49854	-783.29865	1056.01062	1078.08777	-757.48401	1049.67322	928.50836	-784.97589	991.03638	809.84875	-764.20624	1059.73755	809.07959	-755.75201	1024.76819	724.66223	-1182.14917	979.48334	1393.20642	-1276.82898	1020.51917	1198.65601	-1292.32141	1013.96826	1077.20520	-1309.10120	989.90491	959.70050	-1273.06531	919.78497	826.92029	-1316.82153	971.95471	823.53363	-1315.80884	928.24927	750.78906	-924.63654	910.60919	949.93738	-1143.47925	925.91962	946.98981	-940.62775	1069.60925	977.57312	-1109.74805	1074.06909	979.05347	-852.55127	919.80310	642.40247	-884.17804	873.14630	490.06177	-887.20880	828.96484	238.38210	-926.66577	771.90778	74.54374	-972.36670	804.69495	47.93609	-936.07397	625.36169	86.60762	-1180.56653	1026.13989	616.89154	-1157.49426	1048.50989	492.29196	-1151.20923	1177.31189	254.93719	-1106.56372	1256.50586	84.83038	-1065.25012	1305.07922	69.40453	-1093.99670	1113.82959	29.96448	-1017.48651	1024.91223	1685.23706																											 
47	0.460	-952.31018	919.46075	1647.91296	-1083.72913	911.37482	1642.13196	-962.58124	1051.22339	1588.36584	-1091.45935	1040.05701	1587.14978	-1020.91156	1043.24841	1436.80115	-1028.62244	1082.80811	1109.10657	-1019.10284	934.03705	1357.99963	-1016.01917	899.53571	1180.48621	-1105.24341	1115.87097	1269.71924	-857.80707	993.92535	1388.36792	-790.93365	1027.79993	1187.72546	-782.63055	1049.86536	1077.32581	-757.40283	1043.73950	927.54614	-784.58270	985.46497	808.96698	-764.03107	1054.19128	808.29034	-755.57300	1019.49078	723.81708	-1181.04102	973.16656	1392.43591	-1275.66028	1014.35620	1197.85999	-1291.29968	1007.73975	1076.42261	-1308.14185	983.80988	958.91504	-1272.20972	913.78033	826.06134	-1315.97034	966.02802	822.68988	-1314.98584	922.41174	749.98383	-923.91235	903.36859	949.30316	-1142.68835	919.32825	946.26611	-939.73608	1062.44983	976.55896	-1108.77502	1067.13660	978.03217	-852.21790	912.77478	641.47272	-883.90472	866.40869	489.06250	-886.75507	823.57666	236.88562	-926.41754	768.18994	72.64709	-972.24255	801.02386	46.14252	-935.11780	621.84241	84.08023	-1179.89624	1019.62921	616.25128	-1156.88306	1042.24170	491.67514	-1150.87964	1174.00415	255.66530	-1106.61011	1255.60815	86.57669	-1065.25842	1304.30176	71.79783	-1093.97412	1113.67078	29.86249	-1016.48523	1018.30139	1684.41882																											 
48	0.470	-951.28381	912.77979	1647.11829	-1082.66772	904.80139	1641.22437	-961.41083	1044.56140	1587.55334	-1090.30273	1033.52136	1586.26697	-1019.60999	1036.64478	1435.89868	-1027.41113	1075.92322	1108.17957	-1017.96704	927.33490	1357.18005	-1015.01147	892.69244	1179.73901	-1103.88501	1109.28406	1268.82092	-856.59918	987.05151	1387.56665	-789.93518	1021.18921	1186.92383	-781.84155	1043.56567	1076.54810	-756.78680	1037.68481	926.72839	-784.21320	979.74707	808.05157	-763.75537	1048.42798	807.51575	-755.36951	1013.91418	722.99792	-1179.78235	966.55347	1391.54639	-1274.60327	1007.84296	1197.16296	-1290.19202	1001.48053	1075.69946	-1307.14050	977.66968	958.16638	-1271.35291	907.70880	825.23206	-1315.24048	960.16357	822.05719	-1314.15283	916.46417	749.16162	-923.08655	895.83350	948.59998	-1141.84253	912.30865	945.61060	-938.81470	1055.01416	975.53931	-1107.77234	1060.04834	977.04730	-851.90265	905.80890	640.57001	-883.57764	859.54279	487.95599	-886.21552	818.84119	235.17558	-925.96625	765.66083	70.37761	-971.81250	798.78772	44.25384	-934.36407	619.44305	80.73367	-1179.16003	1012.87976	615.55536	-1156.35291	1035.69336	490.95413	-1150.74353	1170.51965	256.41220	-1106.69885	1254.48621	88.43325	-1065.38574	1303.40015	74.36968	-1094.00354	1113.60901	29.86202	-1015.39856	1011.65814	1683.54504																											 
49	0.480	-950.15668	906.10474	1646.29285	-1081.58191	898.28333	1640.30334	-960.13049	1037.91772	1586.74597	-1089.05237	1027.00513	1585.38525	-1018.23181	1030.05933	1434.95984	-1026.09692	1068.89453	1107.21228	-1016.68726	920.97980	1356.44958	-1013.96252	885.77631	1178.94653	-1102.38391	1102.59705	1267.82434	-855.28998	980.07123	1386.73938	-788.78638	1014.42023	1186.15894	-780.89679	1037.01672	1075.75549	-755.76611	1031.74597	926.08337	-783.81396	973.63995	807.22150	-763.18512	1042.39990	806.68439	-755.09009	1007.92859	722.06549	-1178.52100	960.28387	1390.81860	-1273.37329	1001.53265	1196.43652	-1289.01941	995.26184	1074.97278	-1306.08948	971.54877	957.44861	-1270.41980	901.66974	824.39618	-1314.24622	953.97650	821.25299	-1313.40173	910.46063	748.40070	-922.29523	888.07605	947.87872	-1141.38086	903.91943	945.20288	-937.77405	1047.33240	974.47314	-1106.65552	1052.75134	976.01172	-851.47870	898.39050	639.44379	-883.04419	852.57208	486.69101	-885.59912	814.83246	233.28377	-925.61047	764.26123	67.55132	-971.24835	797.88043	42.05241	-933.95496	618.36426	76.52929	-1178.47607	1005.79987	614.80212	-1155.84399	1028.68079	490.09387	-1150.69006	1166.88281	257.28940	-1106.83594	1253.31494	90.41860	-1065.62256	1302.47119	77.19828	-1094.03467	1113.51611	29.78494	-1014.22644	1005.04602	1682.70398																											 
